<svg width="1600" height="480" viewBox="0 0 1600 480" fill="none" xmlns="http://www.w3.org/2000/svg">
<mask id="mask0_201_7099" style="mask-type:alpha" maskUnits="userSpaceOnUse" x="0" y="0" width="1600" height="480">
<rect width="1600" height="480" fill="#C4C4C4"/>
</mask>
<g mask="url(#mask0_201_7099)">
<path fill-rule="evenodd" clip-rule="evenodd" d="M790.883 180.086C782.57 179.678 772.283 180.716 759.981 183.4C661.695 204.845 606.511 268.964 603.611 331.834C603.182 341.12 603.896 350.371 605.779 359.444C464.693 414.901 257.652 450.098 0.353366 401.259L-2.66458e-05 403.121C257.474 451.993 464.772 416.843 606.186 361.32C610.921 382.277 621.938 402.225 639.569 419.382C665.326 444.449 705.157 463.521 760.052 471.166C865.71 485.879 936.612 421.286 995.703 367.453C998.137 365.236 1000.55 363.037 1002.95 360.862C1018.1 347.102 1032.52 334.328 1046.61 324.084C1060.71 313.838 1074.44 306.162 1088.22 302.556C1101.98 298.956 1115.82 299.403 1130.18 305.447C1144.56 311.499 1159.52 323.189 1175.46 342.177C1239.68 418.668 1310.98 438.092 1383.71 436.276C1420.05 435.369 1456.74 429.163 1493.06 422.149C1500.46 420.72 1507.85 419.257 1515.21 417.798C1544.01 412.096 1572.47 406.458 1600.31 403.131L1600.08 401.249C1572.17 404.587 1543.61 410.242 1514.81 415.946C1507.45 417.403 1500.08 418.863 1492.7 420.289C1456.39 427.3 1419.83 433.479 1383.67 434.382C1311.4 436.186 1240.7 416.93 1176.91 340.959C1160.85 321.831 1145.66 309.908 1130.91 303.7C1116.14 297.484 1101.88 297.025 1087.74 300.723C1073.64 304.414 1059.69 312.24 1045.5 322.551C1031.31 332.863 1016.83 345.702 1001.67 359.459C999.316 361.599 996.942 363.762 994.549 365.941C935.351 419.862 865.071 483.877 760.314 469.289C705.709 461.685 666.289 442.742 640.89 418.024C623.44 401.043 612.588 381.318 607.97 360.617C638.146 348.686 665.295 335.832 689.264 322.682C723.344 303.982 751.004 284.677 771.792 266.56C792.565 248.457 806.531 231.494 813.15 217.465C816.46 210.451 817.966 204.099 817.503 198.668C817.036 193.198 814.571 188.712 810.066 185.517C805.596 182.346 799.187 180.493 790.883 180.086ZM607.568 358.739C605.766 349.921 605.087 340.937 605.503 331.921C608.353 270.155 662.669 206.572 760.385 185.251C772.584 182.589 782.696 181.581 790.79 181.978C798.894 182.375 804.902 184.177 808.97 187.062C813.002 189.922 815.194 193.893 815.615 198.83C816.04 203.806 814.666 209.812 811.436 216.657C804.977 230.346 791.232 247.106 770.548 265.132C749.878 283.145 722.335 302.375 688.352 321.02C664.532 334.09 637.553 346.869 607.568 358.739Z" fill="white"/>
<circle cx="989.945" cy="371.358" r="7.57853" fill="white"/>
</g>
</svg>
